<?xml version="1.0" encoding="UTF-8" standalone="no"?>
<!-- Created with Inkscape (http://www.inkscape.org/) -->

<svg
   xmlns:dc="http://purl.org/dc/elements/1.1/"
   xmlns:cc="http://creativecommons.org/ns#"
   xmlns:rdf="http://www.w3.org/1999/02/22-rdf-syntax-ns#"
   xmlns:svg="http://www.w3.org/2000/svg"
   xmlns="http://www.w3.org/2000/svg"
   xmlns:sodipodi="http://sodipodi.sourceforge.net/DTD/sodipodi-0.dtd"
   xmlns:inkscape="http://www.inkscape.org/namespaces/inkscape"
   width="33.671261mm"
   height="39.712177mm"
   viewBox="0 0 33.671261 39.712177"
   version="1.1"
   id="svg8"
   inkscape:version="0.92.4 (5da689c313, 2019-01-14)"
   sodipodi:docname="logo.svg">
  <defs
     id="defs2" />
  <sodipodi:namedview
     id="base"
     pagecolor="#ffffff"
     bordercolor="#666666"
     borderopacity="1.0"
     inkscape:pageopacity="0.0"
     inkscape:pageshadow="2"
     inkscape:zoom="0.35"
     inkscape:cx="-366.15812"
     inkscape:cy="-150.66767"
     inkscape:document-units="mm"
     inkscape:current-layer="layer1"
     showgrid="false"
     inkscape:window-width="2560"
     inkscape:window-height="1387"
     inkscape:window-x="-8"
     inkscape:window-y="-8"
     inkscape:window-maximized="1"
     fit-margin-top="0"
     fit-margin-left="0"
     fit-margin-right="0"
     fit-margin-bottom="0" />
  <metadata
     id="metadata5">
    <rdf:RDF>
      <cc:Work
         rdf:about="">
        <dc:format>image/svg+xml</dc:format>
        <dc:type
           rdf:resource="http://purl.org/dc/dcmitype/StillImage" />
        <dc:title></dc:title>
      </cc:Work>
    </rdf:RDF>
  </metadata>
  <g
     inkscape:label="Layer 1"
     inkscape:groupmode="layer"
     id="layer1"
     transform="translate(-79.870408,-69.257004)">
    <path
       inkscape:connector-curvature="0"
       id="path28"
       d="m 81.340193,105.24778 c 0.420656,-5.13493 1.899347,-9.779009 3.924752,-12.326359 l 1.693744,-2.13021 h 4.744002 4.744 l -0.199977,1.70419 c -0.180492,1.53803 -0.07927,1.70417 1.038644,1.70417 1.125228,0 1.219824,-0.16041 1.033172,-1.75082 l -0.205454,-1.75079 5.183784,0.18872 5.18379,0.18872 1.32172,1.98819 c 1.80185,2.71047 3.17349,7.464999 3.48222,12.070509 l 0.25708,3.83508 h -7.56038 -7.560391 v -3.40833 c 0,-3.50357 -0.260681,-3.90154 -2.006806,-3.06354 -0.532255,0.25545 -0.71847,1.13882 -0.71847,3.40835 v 3.06352 h -7.330128 -7.330126 z m 17.080689,-7.071819 c 0,-3.20812 -0.06332,-3.40835 -1.077748,-3.40835 -0.967565,0 -1.101699,0.30488 -1.312101,2.98231 -0.277085,3.525939 -0.174022,3.834369 1.281119,3.834369 1.052302,0 1.10873,-0.17349 1.10873,-3.408329 z m -8.379255,-9.23093 c -0.0962,-0.39055 -0.285647,-1.34913 -0.420989,-2.13022 -0.457305,-2.63923 -3.060518,-6.33059 -5.434522,-7.70613 l -2.259413,-1.30919 6.998002,-0.001 c 8.256685,-0.002 10.876526,0.69573 12.973975,3.45547 1.52264,2.00348 3.33539,6.09441 3.33539,7.52718 0,1.2551 -5.810045,1.27634 -6.194723,0.0225 -0.143795,-0.46868 -0.648369,-0.85211 -1.121276,-0.85211 -0.472908,0 -0.85983,0.38343 -0.85983,0.85211 0,0.68196 -0.682906,0.85206 -3.42085,0.85206 -2.340587,0 -3.476087,-0.22423 -3.595764,-0.71007 z m 8.379255,-2.46862 c 0,-1.79105 -1.520607,-4.20604 -2.648345,-4.20604 -1.023803,0 -1.049673,0.0775 -0.426958,1.2781 0.364583,0.70297 0.90627,1.8533 1.203747,2.55628 0.621697,1.46912 1.871556,1.71733 1.871556,0.37166 z m -2.72528,-5.32757 c 0,-0.60631 -1.846833,-1.90564 -3.633703,-2.55649 -1.019703,-0.3714 -0.973368,-0.23624 0.454217,1.32506 1.556387,1.70225 3.179486,2.33086 3.179486,1.23143 z M 80.009694,75.027646 c 0.398097,-2.006007 1.910604,-4.06428 3.680209,-5.008178 1.29295,-0.689636 9.280424,-1.072161 9.280424,-0.444407 0,0.149242 -0.64098,0.945921 -1.4244,1.770344 -0.783418,0.824456 -1.705944,2.341687 -2.050053,3.371682 -0.589088,1.763234 -0.758024,1.872724 -2.890622,1.872724 -1.84904,0 -2.267505,-0.18254 -2.278781,-0.99412 -0.01295,-0.94675 -0.03585,-0.94675 -0.47678,0 -0.320587,0.68837 -1.029938,0.99412 -2.306492,0.99412 -1.783462,0 -1.833422,-0.051 -1.533505,-1.562165 z m 5.239015,-1.913225 c 0,-0.312452 -0.204394,-0.41009 -0.454209,-0.216983 -0.249817,0.19314 -0.454217,0.606744 -0.454217,0.919164 0,0.312421 0.204395,0.410059 0.454217,0.216967 0.249811,-0.19314 0.454209,-0.606695 0.454209,-0.919115 z"
       style="fill:#000000;stroke-width:0.31457001" />
  </g>
</svg>
