<svg id="Capa_1" enable-background="new 0 0 512 512" height="512" viewBox="0 0 512 512" width="512" xmlns="http://www.w3.org/2000/svg"><g><path d="m360.209 272.548c-66.017 0-119.726 53.709-119.726 119.726s53.709 119.726 119.726 119.726 119.726-53.708 119.726-119.726-53.708-119.726-119.726-119.726zm0 224.452c-57.746 0-104.726-46.979-104.726-104.726s46.979-104.726 104.726-104.726 104.726 46.98 104.726 104.726-46.979 104.726-104.726 104.726z"/><path d="m439.47 365.854c-1.31-3.93-5.559-6.053-9.487-4.744l-50.997 16.999c-4.3-5.686-11.116-9.368-18.777-9.368-3.757 0-7.309.89-10.463 2.463l-40.346-40.346c-2.929-2.929-7.678-2.929-10.606 0-2.929 2.929-2.929 7.678 0 10.606l40.346 40.346c-1.573 3.154-2.463 6.706-2.463 10.464 0 12.976 10.557 23.532 23.532 23.532 12.955 0 23.497-10.523 23.531-23.47l50.986-16.996c3.93-1.309 6.054-5.557 4.744-9.486zm-79.261 34.953c-4.705 0-8.532-3.828-8.532-8.532 0-4.705 3.828-8.533 8.532-8.533s8.532 3.828 8.532 8.533c.001 4.704-3.827 8.532-8.532 8.532z"/><path d="m231.95 432.871h-168.337c-9.125 0-16.548-7.423-16.548-16.548v-384.775c-.001-9.125 7.423-16.548 16.548-16.548h304.613c9.125 0 16.549 7.423 16.549 16.548v216.435c0 4.142 3.358 7.5 7.5 7.5s7.5-3.358 7.5-7.5v-216.435c-.001-17.396-14.153-31.548-31.549-31.548h-304.613c-17.396 0-31.549 14.152-31.549 31.548v384.774c0 17.396 14.152 31.548 31.548 31.548h168.338c4.142 0 7.5-3.358 7.5-7.5s-3.358-7.499-7.5-7.499z"/><path d="m156.476 73.789c-3.234-2.588-7.955-2.063-10.542 1.171l-25.658 32.071-10.343-15.514c-2.298-3.447-6.955-4.378-10.4-2.08-3.447 2.297-4.378 6.954-2.08 10.4l16.032 24.048c1.327 1.991 3.524 3.229 5.915 3.333.109.004.217.007.326.007 2.272 0 4.429-1.031 5.856-2.815l32.065-40.081c2.587-3.233 2.063-7.953-1.171-10.54z"/><path d="m320.129 80.161h-128.258c-4.142 0-7.5 3.358-7.5 7.5s3.358 7.5 7.5 7.5h128.258c4.142 0 7.5-3.358 7.5-7.5s-3.358-7.5-7.5-7.5z"/><path d="m191.871 127.226h96.193c4.142 0 7.5-3.358 7.5-7.5s-3.358-7.5-7.5-7.5h-96.193c-4.142 0-7.5 3.358-7.5 7.5s3.358 7.5 7.5 7.5z"/><path d="m156.476 153.95c-3.234-2.588-7.955-2.063-10.542 1.171l-25.658 32.071-10.343-15.514c-2.298-3.447-6.955-4.378-10.4-2.08-3.447 2.297-4.378 6.954-2.08 10.4l16.032 24.048c1.327 1.991 3.524 3.229 5.915 3.333.109.004.217.007.326.007 2.272 0 4.429-1.031 5.856-2.815l32.065-40.081c2.587-3.233 2.063-7.952-1.171-10.54z"/><path d="m320.129 160.323h-128.258c-4.142 0-7.5 3.358-7.5 7.5s3.358 7.5 7.5 7.5h128.258c4.142 0 7.5-3.358 7.5-7.5s-3.358-7.5-7.5-7.5z"/><path d="m191.871 207.387h96.193c4.142 0 7.5-3.358 7.5-7.5s-3.358-7.5-7.5-7.5h-96.193c-4.142 0-7.5 3.358-7.5 7.5s3.358 7.5 7.5 7.5z"/><path d="m156.476 234.111c-3.234-2.587-7.955-2.063-10.542 1.171l-25.658 32.071-10.343-15.514c-2.298-3.446-6.955-4.377-10.4-2.08-3.447 2.297-4.378 6.954-2.08 10.4l16.032 24.048c1.327 1.991 3.524 3.229 5.915 3.333.109.004.217.007.326.007 2.272 0 4.429-1.031 5.856-2.815l32.065-40.081c2.587-3.233 2.063-7.952-1.171-10.54z"/><path d="m327.629 247.984c0-4.142-3.358-7.5-7.5-7.5h-128.258c-4.142 0-7.5 3.358-7.5 7.5s3.358 7.5 7.5 7.5h128.258c4.142 0 7.5-3.358 7.5-7.5z"/><path d="m271.516 280.048c0-4.142-3.358-7.5-7.5-7.5h-72.145c-4.142 0-7.5 3.358-7.5 7.5s3.358 7.5 7.5 7.5h72.145c4.142 0 7.5-3.358 7.5-7.5z"/><path d="m156.476 314.272c-3.234-2.588-7.955-2.063-10.542 1.171l-25.658 32.071-10.343-15.514c-2.298-3.446-6.955-4.378-10.4-2.08-3.447 2.297-4.378 6.954-2.08 10.4l16.032 24.048c1.327 1.991 3.524 3.229 5.915 3.333.109.004.217.007.326.007 2.272 0 4.429-1.031 5.856-2.815l32.065-40.081c2.587-3.232 2.063-7.952-1.171-10.54z"/><path d="m231.436 328.145c0-4.142-3.358-7.5-7.5-7.5h-32.064c-4.142 0-7.5 3.358-7.5 7.5s3.358 7.5 7.5 7.5h32.064c4.142 0 7.5-3.358 7.5-7.5z"/><path d="m191.871 352.709c-4.142 0-7.5 3.358-7.5 7.5s3.358 7.5 7.5 7.5h24.048c4.142 0 7.5-3.358 7.5-7.5s-3.358-7.5-7.5-7.5z"/></g></svg>