<?xml version="1.0" standalone="no"?>
<!DOCTYPE svg PUBLIC "-//W3C//DTD SVG 20010904//EN"
 "http://www.w3.org/TR/2001/REC-SVG-20010904/DTD/svg10.dtd">
<svg version="1.0" xmlns="http://www.w3.org/2000/svg"
 width="114.000000pt" height="114.000000pt" viewBox="0 0 114.000000 114.000000"
 preserveAspectRatio="xMidYMid meet">
<metadata>
Created by potrace 1.11, written by Peter Selinger 2001-2013
</metadata>
<g transform="translate(0.000000,114.000000) scale(0.100000,-0.100000)"
fill="#000000" stroke="none">
<path d="M327 1030 c-33 -4 -71 -16 -85 -27 -32 -23 -77 -107 -68 -128 8 -21
62 -19 85 4 19 19 19 19 24 0 4 -15 14 -19 51 -19 45 0 46 1 72 53 14 28 38
65 52 80 43 45 9 55 -131 37z m-35 -102 c-7 -7 -12 -8 -12 -2 0 14 12 26 19
19 2 -3 -1 -11 -7 -17z"/>
<path d="M275 798 c56 -37 109 -110 126 -171 19 -71 20 -72 97 -75 63 -3 72
-1 82 18 14 25 31 26 53 0 13 -15 29 -20 69 -20 74 0 83 8 68 56 -19 59 -55
126 -84 157 -49 53 -84 61 -281 65 l-180 4 50 -34z m258 -26 c21 -18 22 -32 2
-32 -16 0 -85 57 -85 71 0 11 56 -16 83 -39z m51 -71 c32 -36 40 -113 10 -93
-6 4 -23 31 -38 60 -24 48 -25 52 -8 52 11 0 26 -8 36 -19z"/>
<path d="M315 489 c-57 -68 -96 -185 -109 -326 l-7 -73 175 0 176 0 0 64 c0
65 14 96 44 96 13 0 26 -62 26 -126 l0 -34 180 0 180 0 -6 63 c-13 150 -58
292 -108 342 -24 24 -31 25 -141 25 l-115 0 0 -41 c0 -36 -2 -40 -22 -37 -20
3 -23 8 -21 41 l2 37 -113 0 -114 0 -27 -31z m296 -86 c13 -33 7 -119 -9 -135
-6 -6 -18 -8 -26 -5 -12 5 -16 21 -16 67 0 91 28 131 51 73z"/>
</g>
</svg>
